<svg width="565.9761230468749px" height="201.2199951171875px" xmlns="http://www.w3.org/2000/svg" viewBox="-32.988061523437466 -25.609997558593747 565.9761230468749 201.2199951171875" style="background: rgba(0, 0, 0, 0);" preserveAspectRatio="xMidYMid"><defs><filter id="editing-hole" x="-100%" y="-100%" width="300%" height="300%"><feFlood flood-color="#000" result="black"></feFlood><feMorphology operator="dilate" radius="2" in="SourceGraphic" result="erode"></feMorphology><feGaussianBlur in="erode" stdDeviation="4" result="blur"></feGaussianBlur><feOffset in="blur" dx="2" dy="2" result="offset"></feOffset><feComposite operator="atop" in="offset" in2="black" result="merge"></feComposite><feComposite operator="in" in="merge" in2="SourceGraphic" result="inner-shadow"></feComposite></filter></defs><g filter="url(#editing-hole)"><g transform="translate(50.0271874666214, 129.27999877929688)"><path d="M46.88-75.28L46.88-75.28Q46.88-66.28 46.36-57.70L46.36-57.70L46.36-57.70Q45.84-49.13 45.42-40.92L45.42-40.92L45.42-40.92Q45-32.72 45-23.48L45-23.48L45-23.48Q45-14.25 46.31-3.94L46.31-3.94L46.31-3.94Q46.31-1.78 45.52-0.84L45.52-0.84L45.52-0.84Q44.72 0.09 42.84 0.09L42.84 0.09L42.84 0.09Q38.44 0.09 38.44-7.22L38.44-7.22L38.44-10.31L38.44-10.31Q25.13-0.38 15.94-0.38L15.94-0.38L15.94-0.38Q12.28-0.38 8.48-2.16L8.48-2.16L8.48-2.16Q4.69-3.94 1.31-9.38L1.31-9.38L1.31-9.38Q0.84-11.63 0.84-13.97L0.84-13.97L0.84-13.97Q0.84-16.31 1.73-19.64L1.73-19.64L1.73-19.64Q2.63-22.97 5.39-26.53L5.39-26.53L5.39-26.53Q8.16-30.09 12.09-32.81L12.09-32.81L12.09-32.81Q20.72-38.63 30.75-38.63L30.75-38.63L30.75-38.63Q35.06-38.63 39-37.31L39-37.31L39-37.31Q39-39 39.23-43.22L39.23-43.22L39.23-43.22Q39.47-47.44 39.75-52.13L39.75-52.13L39.75-52.13Q40.31-64.31 40.50-66.52L40.50-66.52L40.50-66.52Q40.69-68.72 41.02-70.27L41.02-70.27L41.02-70.27Q41.34-71.81 42-72.94L42-72.94L42-72.94Q43.41-75.28 46.88-75.28L46.88-75.28ZM7.69-14.72L7.69-14.72L7.69-14.72Q7.69-7.31 13.03-7.31L13.03-7.31L13.03-7.31Q13.88-7.31 14.91-7.50L14.91-7.50L14.91-7.50Q18.75-7.50 24.38-9.75L24.38-9.75L24.38-9.75Q35.06-13.97 37.41-17.06L37.41-17.06L37.41-29.53L37.41-29.53Q37.41-32.81 32.06-32.81L32.06-32.81L32.06-32.81Q31.41-32.91 30.33-32.91L30.33-32.91L30.33-32.91Q29.25-32.91 27-32.44L27-32.44L27-32.44Q24.75-31.97 21.94-30.75L21.94-30.75L21.94-30.75Q19.13-29.53 16.41-27.75L16.41-27.75L16.41-27.75Q10.69-23.91 8.53-18.75L8.53-18.75L8.53-18.75Q7.69-16.78 7.69-14.72ZM88.59-15.56L88.59-15.56L88.59-15.56Q81.56-4.50 69.84-1.88L69.84-1.88L69.84-1.88Q67.13-1.31 64.92-1.31L64.92-1.31L64.92-1.31Q62.72-1.31 61.27-1.36L61.27-1.36L61.27-1.36Q59.81-1.41 58.03-1.78L58.03-1.78L58.03-1.78Q56.25-2.16 54.75-3L54.75-3L54.75-3Q51.28-4.97 51.28-8.53L51.28-8.53L51.28-8.53Q50.91-10.22 50.91-12.33L50.91-12.33L50.91-12.33Q50.91-14.44 51.84-17.91L51.84-17.91L51.84-17.91Q52.78-21.38 55.27-25.41L55.27-25.41L55.27-25.41Q57.75-29.44 61.31-32.81L61.31-32.81L61.31-32.81Q68.72-39.94 77.34-42L77.34-42L77.34-42Q79.88-42.56 81.98-42.56L81.98-42.56L81.98-42.56Q84.09-42.56 85.78-42.28L85.78-42.28L85.78-42.28Q91.22-42.28 93.09-34.88L93.09-34.88L93.09-34.88Q94.31-30.19 94.55-21.80L94.55-21.80L94.55-21.80Q94.78-13.41 95.02-8.86L95.02-8.86L95.02-8.86Q95.25-4.31 96.19-0.56L96.19-0.56L90.66-0.56L90.66-0.56Q90.28-3.09 90.09-5.06L90.09-5.06L90.09-5.06Q89.91-7.03 89.72-8.72L89.72-8.72L89.72-8.72Q89.25-12.66 88.59-15.56ZM88.22-30.09L88.22-30.09L88.22-30.09Q88.22-35.53 82.88-35.53L82.88-35.53L82.88-35.53Q82.22-35.63 81.56-35.63L81.56-35.63L81.56-35.63Q74.72-35.63 67.13-29.06L67.13-29.06L67.13-29.06Q63.56-26.06 61.03-22.31L61.03-22.31L61.03-22.31Q57.28-16.97 57.28-12.75L57.28-12.75L57.28-12.75Q57.28-7.22 63.66-6.19L63.66-6.19L63.66-6.19Q72.09-6.38 79.78-13.88L79.78-13.88L79.78-13.88Q83.06-17.16 85.22-21L85.22-21L85.22-21Q88.22-26.16 88.22-30.09ZM146.63-34.22L146.63-34.22L146.63-34.22Q142.69-37.03 136.50-37.03L136.50-37.03L136.50-37.03Q130.69-37.03 125.72-34.88L125.72-34.88L125.72-34.88Q116.34-30.94 112.88-24.75L112.88-24.75L112.88-24.75Q111.38-21.94 111.38-18.75L111.38-18.75L111.38-18.75Q111.38-18.19 111.38-15.61L111.38-15.61L111.38-15.61Q111.38-13.03 112.31-8.67L112.31-8.67L112.31-8.67Q113.25-4.31 113.25 0.19L113.25 0.19L113.25 0.19Q111.28 0.28 110.06 0.66L110.06 0.66L110.06 0.66Q108.84 1.03 108 1.03L108 1.03L108 1.03Q107.16 1.03 106.55 0.28L106.55 0.28L106.55 0.28Q105.94-0.47 105.19-2.63L105.19-2.63L105.19-2.63Q105.09-3.19 104.81-5.81L104.81-5.81L104.81-5.81Q104.53-8.44 104.11-12.19L104.11-12.19L104.11-12.19Q103.69-15.94 103.17-20.39L103.17-20.39L103.17-20.39Q102.66-24.84 102.19-29.16L102.19-29.16L102.19-29.16Q101.16-38.53 100.59-42.94L100.59-42.94L100.59-42.94Q100.59-45.19 103.88-45.19L103.88-45.19L103.88-45.19Q105.84-45.19 106.97-43.55L106.97-43.55L106.97-43.55Q108.09-41.91 108.75-39.80L108.75-39.80L108.75-39.80Q109.41-37.69 109.64-35.63L109.64-35.63L109.64-35.63Q109.88-33.56 110.06-32.72L110.06-32.72L110.06-32.72Q122.44-43.78 140.81-43.78L140.81-43.78L140.81-43.78Q142.88-43.78 145.13-43.69L145.13-43.69L145.13-43.69Q145.69-43.78 146.53-43.78L146.53-43.78L146.53-43.78Q147.38-43.78 148.22-42.66L148.22-42.66L148.22-42.66Q149.25-41.34 149.25-39.47L149.25-39.47L149.25-39.47Q149.25-34.78 146.63-34.22ZM162.84-17.06L162.84-17.06L163.31-8.91L163.31-8.91Q163.31-1.41 159.75 0.19L159.75 0.19L159.75 0.19Q159 0.47 157.97 0.47L157.97 0.47L157.97 0.47Q156.94 0.47 155.53 0L155.53 0L155.63-35.06L155.63-35.06Q155.63-42.66 154.73-50.30L154.73-50.30L154.73-50.30Q153.84-57.94 153.84-65.53L153.84-65.53L153.84-65.53Q153.84-68.53 157.03-68.53L157.03-68.53L157.78-68.53L157.78-68.53Q158.44-68.53 158.63-68.44L158.63-68.44L158.63-68.44Q160.03-62.63 160.50-54.38L160.50-54.38L160.50-54.38Q161.53-36.09 162.38-29.81L162.38-29.81L162.38-29.81Q163.97-30.66 169.50-34.59L169.50-34.59L169.50-34.59Q175.03-38.53 178.41-40.92L178.41-40.92L178.41-40.92Q181.78-43.31 184.78-45.38L184.78-45.38L184.78-45.38Q191.81-49.97 193.59-49.97L193.59-49.97L193.59-49.97Q195.09-49.97 195.94-48.19L195.94-48.19L195.94-48.19Q191.25-42.28 180.84-35.06L180.84-35.06L180.84-35.06Q176.63-32.16 172.45-29.30L172.45-29.30L172.45-29.30Q168.28-26.44 164.81-23.34L164.81-23.34L164.81-23.34Q171.09-21.66 176.72-19.83L176.72-19.83L176.72-19.83Q182.34-18 187.59-16.50L187.59-16.50L187.59-16.50Q199.69-12.94 208.41-12.47L208.41-12.47L208.41-12.47Q208.41-9.94 207.94-9.19L207.94-9.19L207.94-9.19Q207.09-7.88 204.47-7.69L204.47-7.69L203.72-7.69L203.72-7.69Q198-9.28 188.53-11.25L188.53-11.25L188.53-11.25Q169.88-15.09 162.84-17.06ZM214.22-36.38L214.22-36.38L214.22-36.38Q214.03-41.44 213.84-45.42L213.84-45.42L213.84-45.42Q213.66-49.41 213.61-51.33L213.61-51.33L213.61-51.33Q213.56-53.25 212.06-60.75L212.06-60.75L212.06-60.75Q212.91-61.88 213.70-62.91L213.70-62.91L213.70-62.91Q214.50-63.94 216-63.94L216-63.94L216-63.94Q219.28-63.94 221.06-36.28L221.06-36.28L221.06-36.28Q222-20.25 222-4.22L222-4.22L222-4.22Q222 0.09 216 0.09L216 0.09L215.25 0L215.25 0Q215.25-4.88 214.97-12.47L214.97-12.47L214.97-12.47Q214.69-20.06 214.55-25.69L214.55-25.69L214.55-25.69Q214.41-31.31 214.22-36.38ZM230.16-44.06L236.06-44.06L236.06-44.06Q237.28-26.53 238.13-3.47L238.13-3.47L238.13-3.47Q237.56-0.56 233.63-0.56L233.63-0.56L233.63-0.56Q232.59-0.56 231.52-0.98L231.52-0.98L231.52-0.98Q230.44-1.41 230.16-2.16L230.16-2.16L230.16-44.06ZM227.34-56.81L227.34-56.81L227.34-56.81Q227.34-60.09 231.19-60.09L231.19-60.09L231.19-60.09Q233.72-60.09 235.31-58.97L235.31-58.97L235.31-58.97Q235.59-57.94 235.59-56.95L235.59-56.95L235.59-56.95Q235.59-55.97 234.84-55.03L234.84-55.03L234.84-55.03Q234.09-54.09 232.59-54.09L232.59-54.09L232.59-54.09Q231.09-54.09 229.59-54.80L229.59-54.80L229.59-54.80Q228.09-55.50 227.34-56.81ZM286.50 33.19L285.09 33.19L282.56 33.28L280.41 33.28L279-7.69L279-7.69Q275.34-4.22 267.94-1.88L267.94-1.88L267.94-1.88Q261.19 0.28 255.84 0.28L255.84 0.28L255.84 0.28Q251.53 0.28 248.67-0.94L248.67-0.94L248.67-0.94Q245.81-2.16 244.45-3.61L244.45-3.61L244.45-3.61Q243.09-5.06 243.05-6.66L243.05-6.66L243.05-6.66Q243-8.25 243-9.19L243-9.19L243-9.19Q243-14.63 245.63-19.78L245.63-19.78L245.63-19.78Q248.25-24.94 253.13-29.06L253.13-29.06L253.13-29.06Q258-33.19 263.86-35.34L263.86-35.34L263.86-35.34Q269.72-37.50 275.25-37.50L275.25-37.50L276.56-37.50L276.56-37.50Q279.28-37.50 281.53-35.53L281.53-35.53L281.53-35.53Q283.78-33.56 285.28-31.13L285.28-31.13L285.28-31.13Q285.28-14.81 285.38 1.03L285.38 1.03L285.38 1.03Q285.47 16.88 286.50 33.19L286.50 33.19ZM276.56-19.13L277.13-26.81L277.13-26.81Q277.13-31.22 275.25-31.22L275.25-31.22L275.25-31.22Q265.78-31.22 258.19-25.69L258.19-25.69L258.19-25.69Q250.13-19.59 250.13-10.50L250.13-10.50L250.13-10.50Q250.13-6 255.19-5.81L255.19-5.81L255.19-5.81Q256.59-5.81 258.89-5.81L258.89-5.81L258.89-5.81Q261.19-5.81 264.47-6.42L264.47-6.42L264.47-6.42Q267.75-7.03 270.38-8.63L270.38-8.63L270.38-8.63Q276.56-12.09 276.56-19.13L276.56-19.13ZM291-12.47L291-12.47L291-12.47Q291-13.97 290.77-16.64L290.77-16.64L290.77-16.64Q290.53-19.31 290.34-22.50L290.34-22.50L290.34-22.50Q290.16-25.69 290.16-28.97L290.16-28.97L290.16-28.97Q290.16-32.25 290.72-34.97L290.72-34.97L290.72-34.97Q291.94-41.06 295.78-41.06L295.78-41.06L295.78-41.06Q298.41-40.31 299.30-39.19L299.30-39.19L299.30-39.19Q300.19-38.06 300.19-36.42L300.19-36.42L300.19-36.42Q300.19-34.78 299.34-32.34L299.34-32.34L299.34-32.34Q296.25-24.19 296.25-17.63L296.25-17.63L296.25-17.63Q296.25-15.47 296.53-13.03L296.53-13.03L296.53-13.03Q298.03-6.75 306.84-6.75L306.84-6.75L306.84-6.75Q311.44-6.75 315.56-8.34L315.56-8.34L315.56-8.34Q323.44-11.25 326.25-15.19L326.25-15.19L326.25-15.19Q327.09-19.50 327.09-22.73L327.09-22.73L327.09-22.73Q327.09-25.97 326.86-28.50L326.86-28.50L326.86-28.50Q326.63-31.03 326.30-34.08L326.30-34.08L326.30-34.08Q325.97-37.13 325.88-40.78L325.88-40.78L325.88-40.78Q327.09-41.34 328.27-41.34L328.27-41.34L328.27-41.34Q329.44-41.34 330.70-40.13L330.70-40.13L330.70-40.13Q331.97-38.91 332.86-35.53L332.86-35.53L332.86-35.53Q333.75-32.16 334.03-27.61L334.03-27.61L334.03-27.61Q334.31-23.06 334.36-18.19L334.36-18.19L334.36-18.19Q334.41-13.31 334.41-8.77L334.41-8.77L334.41-8.77Q334.41-4.22 334.78-0.94L334.78-0.94L334.78-0.94Q333.66 0.09 332.63 0.09L332.63 0.09L332.63 0.09Q328.88 0.09 327.09-7.41L327.09-7.41L327.09-7.41Q325.88-6.38 322.97-4.88L322.97-4.88L322.97-4.88Q316.78-1.50 308.34-0.38L308.34-0.38L308.34-0.38Q306.75-0.19 304.78-0.19L304.78-0.19L304.78-0.19Q302.81-0.19 299.86-0.94L299.86-0.94L299.86-0.94Q296.91-1.69 294.28-4.41L294.28-4.41L294.28-4.41Q291.66-7.13 291-12.47ZM342.75-44.06L348.66-44.06L348.66-44.06Q349.88-26.53 350.72-3.47L350.72-3.47L350.72-3.47Q350.16-0.56 346.22-0.56L346.22-0.56L346.22-0.56Q345.19-0.56 344.11-0.98L344.11-0.98L344.11-0.98Q343.03-1.41 342.75-2.16L342.75-2.16L342.75-44.06ZM339.94-56.81L339.94-56.81L339.94-56.81Q339.94-60.09 343.78-60.09L343.78-60.09L343.78-60.09Q346.31-60.09 347.91-58.97L347.91-58.97L347.91-58.97Q348.19-57.94 348.19-56.95L348.19-56.95L348.19-56.95Q348.19-55.97 347.44-55.03L347.44-55.03L347.44-55.03Q346.69-54.09 345.19-54.09L345.19-54.09L345.19-54.09Q343.69-54.09 342.19-54.80L342.19-54.80L342.19-54.80Q340.69-55.50 339.94-56.81ZM399.09-75.28L399.09-75.28Q399.09-66.28 398.58-57.70L398.58-57.70L398.58-57.70Q398.06-49.13 397.64-40.92L397.64-40.92L397.64-40.92Q397.22-32.72 397.22-23.48L397.22-23.48L397.22-23.48Q397.22-14.25 398.53-3.94L398.53-3.94L398.53-3.94Q398.53-1.78 397.73-0.84L397.73-0.84L397.73-0.84Q396.94 0.09 395.06 0.09L395.06 0.09L395.06 0.09Q390.66 0.09 390.66-7.22L390.66-7.22L390.66-10.31L390.66-10.31Q377.34-0.38 368.16-0.38L368.16-0.38L368.16-0.38Q364.50-0.38 360.70-2.16L360.70-2.16L360.70-2.16Q356.91-3.94 353.53-9.38L353.53-9.38L353.53-9.38Q353.06-11.63 353.06-13.97L353.06-13.97L353.06-13.97Q353.06-16.31 353.95-19.64L353.95-19.64L353.95-19.64Q354.84-22.97 357.61-26.53L357.61-26.53L357.61-26.53Q360.38-30.09 364.31-32.81L364.31-32.81L364.31-32.81Q372.94-38.63 382.97-38.63L382.97-38.63L382.97-38.63Q387.28-38.63 391.22-37.31L391.22-37.31L391.22-37.31Q391.22-39 391.45-43.22L391.45-43.22L391.45-43.22Q391.69-47.44 391.97-52.13L391.97-52.13L391.97-52.13Q392.53-64.31 392.72-66.52L392.72-66.52L392.72-66.52Q392.91-68.72 393.23-70.27L393.23-70.27L393.23-70.27Q393.56-71.81 394.22-72.94L394.22-72.94L394.22-72.94Q395.63-75.28 399.09-75.28L399.09-75.28ZM359.91-14.72L359.91-14.72L359.91-14.72Q359.91-7.31 365.25-7.31L365.25-7.31L365.25-7.31Q366.09-7.31 367.13-7.50L367.13-7.50L367.13-7.50Q370.97-7.50 376.59-9.75L376.59-9.75L376.59-9.75Q387.28-13.97 389.63-17.06L389.63-17.06L389.63-29.53L389.63-29.53Q389.63-32.81 384.28-32.81L384.28-32.81L384.28-32.81Q383.63-32.91 382.55-32.91L382.55-32.91L382.55-32.91Q381.47-32.91 379.22-32.44L379.22-32.44L379.22-32.44Q376.97-31.97 374.16-30.75L374.16-30.75L374.16-30.75Q371.34-29.53 368.63-27.75L368.63-27.75L368.63-27.75Q362.91-23.91 360.75-18.75L360.75-18.75L360.75-18.75Q359.91-16.78 359.91-14.72Z" fill="#ccc"></path></g></g><style>text {
  font-size: 64px;
  font-family: Arial Black;
  dominant-baseline: central;
  text-anchor: middle;
}</style></svg>